<?xml version="1.0" encoding="UTF-8"?>
<svg version="1.1" xmlns="http://www.w3.org/2000/svg" width="512" height="512">
<path d="M0 0 C1.45108658 0.00273422 1.45108658 0.00273422 2.93148804 0.00552368 C17.26440977 0.05095174 31.21023917 0.55983928 45.3125 3.3125 C46.65803955 3.55395752 46.65803955 3.55395752 48.03076172 3.80029297 C107.84088904 14.62287989 165.35495829 48.68064457 202.3125 97.3125 C202.72918945 97.85277832 203.14587891 98.39305664 203.57519531 98.94970703 C211.2584873 108.9447116 218.00092968 119.40459036 224.3125 130.3125 C224.70679199 130.98974121 225.10108398 131.66698242 225.50732422 132.36474609 C238.68961173 155.2833756 247.29510918 180.85822563 252.625 206.6875 C252.77243652 207.39817627 252.91987305 208.10885254 253.07177734 208.84106445 C256.05713787 224.48358366 256.6873098 240.11919606 256.625 256 C256.62226578 257.45108658 256.62226578 257.45108658 256.61947632 258.93148804 C256.57404826 273.26440977 256.06516072 287.21023917 253.3125 301.3125 C253.15152832 302.20952637 252.99055664 303.10655273 252.82470703 304.03076172 C242.00212011 363.84088904 207.94435543 421.35495829 159.3125 458.3125 C158.77222168 458.72918945 158.23194336 459.14587891 157.67529297 459.57519531 C147.6802884 467.2584873 137.22040964 474.00092968 126.3125 480.3125 C125.63525879 480.70679199 124.95801758 481.10108398 124.26025391 481.50732422 C101.3416244 494.68961173 75.76677437 503.29510918 49.9375 508.625 C49.22682373 508.77243652 48.51614746 508.91987305 47.78393555 509.07177734 C32.14141634 512.05713787 16.50580394 512.6873098 0.625 512.625 C-0.34239105 512.62317719 -1.3097821 512.62135437 -2.30648804 512.61947632 C-16.63940977 512.57404826 -30.58523917 512.06516072 -44.6875 509.3125 C-45.58452637 509.15152832 -46.48155273 508.99055664 -47.40576172 508.82470703 C-107.21588904 498.00212011 -164.72995829 463.94435543 -201.6875 415.3125 C-202.10418945 414.77222168 -202.52087891 414.23194336 -202.95019531 413.67529297 C-210.6334873 403.6802884 -217.37592968 393.22040964 -223.6875 382.3125 C-224.08179199 381.63525879 -224.47608398 380.95801758 -224.88232422 380.26025391 C-238.06461173 357.3416244 -246.67010918 331.76677437 -252 305.9375 C-252.14743652 305.22682373 -252.29487305 304.51614746 -252.44677734 303.78393555 C-255.43213787 288.14141634 -256.0623098 272.50580394 -256 256.625 C-255.99817719 255.65760895 -255.99635437 254.6902179 -255.99447632 253.69351196 C-255.94904826 239.36059023 -255.44016072 225.41476083 -252.6875 211.3125 C-252.44604248 209.96696045 -252.44604248 209.96696045 -252.19970703 208.59423828 C-241.37712011 148.78411096 -207.31935543 91.27004171 -158.6875 54.3125 C-158.14722168 53.89581055 -157.60694336 53.47912109 -157.05029297 53.04980469 C-147.0552884 45.3665127 -136.59540964 38.62407032 -125.6875 32.3125 C-125.01025879 31.91820801 -124.33301758 31.52391602 -123.63525391 31.11767578 C-100.7166244 17.93538827 -75.14177437 9.32989082 -49.3125 4 C-48.60182373 3.85256348 -47.89114746 3.70512695 -47.15893555 3.55322266 C-31.51641634 0.56786213 -15.88080394 -0.0623098 0 0 Z M-138.4140625 102.2265625 C-140.5264424 104.1647255 -142.68748072 106.02273271 -144.875 107.875 C-148.88214814 111.37825526 -152.2813695 115.23209469 -155.6875 119.3125 C-156.48414063 120.24449219 -157.28078125 121.17648438 -158.1015625 122.13671875 C-163.32695828 128.30142284 -168.27200227 134.53480184 -172.6875 141.3125 C-173.08549805 141.91739258 -173.48349609 142.52228516 -173.89355469 143.14550781 C-193.2682461 172.83230332 -206.67928651 209.10401664 -206.890625 244.88671875 C-206.89768463 245.68435135 -206.90474426 246.48198395 -206.91201782 247.30378723 C-207.16537124 271.96429661 -207.16537124 271.96429661 -203.6875 296.3125 C-203.48882324 297.21742188 -203.29014648 298.12234375 -203.08544922 299.0546875 C-196.88353682 326.48247087 -186.12903341 352.43556885 -169.6875 375.3125 C-168.59501953 376.86324219 -168.59501953 376.86324219 -167.48046875 378.4453125 C-162.23990257 385.67823808 -156.43729939 392.23933474 -150.26123047 398.67138672 C-149.2208762 399.7562861 -148.185924 400.84639445 -147.15673828 401.94189453 C-121.71853289 428.9898042 -89.69951716 445.25607353 -54.6875 456.3125 C-54.6875 440.8025 -54.6875 425.2925 -54.6875 409.3125 C-59.6375 409.9725 -64.5875 410.6325 -69.6875 411.3125 C-86.4697539 411.89623057 -102.75463207 410.04989274 -115.6875 398.3125 C-116.34234375 397.735 -116.9971875 397.1575 -117.671875 396.5625 C-123.15532805 391.12155434 -125.81602636 384.9948906 -128.74902344 377.98852539 C-131.35349508 371.82765157 -134.48885219 366.5408162 -138.6875 361.3125 C-139.26757812 360.50683594 -139.84765625 359.70117188 -140.4453125 358.87109375 C-143.23018988 355.69322845 -146.32646571 353.53787776 -149.8125 351.1875 C-156.42913569 346.70004647 -156.42913569 346.70004647 -158.6875 343.3125 C-158.5 341.1875 -158.5 341.1875 -157.6875 339.3125 C-150.4409497 336.89698323 -143.39494734 338.12833084 -136.42578125 340.91796875 C-126.60382296 345.92002169 -120.06592477 353.91972224 -113.875 362.75 C-107.6243565 371.41755899 -99.55908912 379.28338491 -88.6875 381.3125 C-77.41731805 382.13858664 -63.62037591 382.61810248 -53.6875 376.3125 C-51.36616752 373.31683679 -50.10027428 370.73164179 -48.890625 367.15234375 C-47.43458239 363.71551591 -45.72002325 362.41776185 -42.6875 360.3125 C-41.5428125 359.44625 -41.5428125 359.44625 -40.375 358.5625 C-39.818125 358.15 -39.26125 357.7375 -38.6875 357.3125 C-40.32809135 355.67190865 -42.40968352 355.71161381 -44.65625 355.296875 C-45.69370361 355.10061523 -46.73115723 354.90435547 -47.80004883 354.70214844 C-48.91790771 354.49106445 -50.0357666 354.27998047 -51.1875 354.0625 C-86.52708449 347.12191046 -118.58544411 332.87667832 -139.6875 302.4375 C-153.4006564 281.82849519 -162.47940347 253.00780141 -158.0390625 228.2109375 C-153.68677825 207.66924887 -141.33027984 193.57384708 -126.6875 179.3125 C-125.35195367 177.98138334 -124.01767004 176.64898914 -122.6875 175.3125 C-122.89246094 174.67183594 -123.09742188 174.03117187 -123.30859375 173.37109375 C-123.57800781 172.50613281 -123.84742188 171.64117187 -124.125 170.75 C-124.39183594 169.90308594 -124.65867187 169.05617188 -124.93359375 168.18359375 C-129.82450534 149.55758329 -125.97496163 130.3498691 -120.6875 112.3125 C-97.81264806 112.65115864 -75.33398081 120.65678276 -57.35546875 135.01171875 C-53.60321533 136.84114831 -50.61497996 136.13539644 -46.6875 135.3125 C-45.91075928 135.16256592 -45.13401855 135.01263184 -44.33374023 134.8581543 C-40.97705073 134.19644611 -37.63113485 133.48710836 -34.28515625 132.7734375 C-21.83333221 130.19454349 -9.54597451 130.07339556 3.125 130.0625 C4.04090912 130.06116058 4.95681824 130.05982117 5.90048218 130.05844116 C22.67185264 130.0637692 38.78596525 130.95623052 54.9375 135.859375 C60.27107086 136.87696418 63.5852903 134.70631753 67.9375 131.8125 C86.16968244 120.16897749 105.52335035 112.3125 127.3125 112.3125 C127.4163098 114.75119591 127.517227 117.18996863 127.61523438 119.62890625 C127.70667759 121.87390333 127.80320106 124.11869813 127.90429688 126.36328125 C128.17395965 132.78739954 128.33637477 139.18303935 128.29811096 145.61190796 C128.28078493 149.00434041 128.29678875 152.39634472 128.31375122 155.78875732 C128.31292341 157.45847935 128.2963015 159.1282753 128.26315308 160.79766846 C127.9134639 172.31027059 127.9134639 172.31027059 133.5546875 181.9921875 C135.12681548 183.44735463 136.71157468 184.889076 138.3125 186.3125 C140.18123923 188.58743614 141.82275742 190.97746995 143.4375 193.4375 C143.8514502 194.0665625 144.26540039 194.695625 144.69189453 195.34375 C153.54128603 209.2122505 159.73273469 225.77658508 160.3125 242.3125 C160.35246094 243.34375 160.39242188 244.375 160.43359375 245.4375 C160.97764311 273.60005489 153.29133562 300.95418134 133.77124023 321.89428711 C124.0461268 331.92295333 113.04331222 338.7082254 100.3125 344.3125 C99.69068848 344.59077637 99.06887695 344.86905273 98.42822266 345.15576172 C83.63670494 351.6380534 67.32951003 354.77208435 51.3125 356.3125 C52.54224492 358.97975496 53.5022307 360.5022307 55.625 362.625 C68.07319165 375.07319165 68.28176139 390.68929141 69.3125 407.3125 C69.35397156 407.97527954 69.39544312 408.63805908 69.43817139 409.32092285 C69.84542345 415.8350678 70.24826619 422.34944196 70.61572266 428.8659668 C71.02322721 436.03460847 71.50211883 443.17667321 72.3125 450.3125 C88.00899248 445.50147866 102.96359345 437.83833963 116.3125 428.3125 C116.95525879 427.85617187 117.59801758 427.39984375 118.26025391 426.9296875 C126.92657426 420.72494223 135.12172751 414.20887612 142.78662109 406.78710938 C143.84307522 405.76615211 144.90639417 404.75226855 145.97509766 403.74414062 C181.21557888 370.48078254 206.02135255 319.99201216 207.48950195 271.10742188 C207.51553462 269.66545489 207.53575434 268.22337366 207.55078125 266.78125 C207.5605751 265.9958786 207.57036896 265.2105072 207.58045959 264.40133667 C208.12351104 209.52238915 192.08212979 158.44299335 154.3984375 117.5859375 C152.4602745 115.4735576 150.60226729 113.31251928 148.75 111.125 C145.24674474 107.11785186 141.39290531 103.7186305 137.3125 100.3125 C136.38050781 99.51585937 135.44851563 98.71921875 134.48828125 97.8984375 C128.32357716 92.67304172 122.09019816 87.72799773 115.3125 83.3125 C114.70760742 82.91450195 114.10271484 82.51650391 113.47949219 82.10644531 C83.70428717 62.67405462 47.52084667 49.43449177 11.66015625 49.07421875 C10.85112854 49.0644249 10.04210083 49.05463104 9.20855713 49.04454041 C-46.01963278 48.51409681 -97.25368877 64.263111 -138.4140625 102.2265625 Z " fill="#2B414D" transform="translate(255.6875,-0.3125)"/>
</svg>
