<?xml version="1.0" encoding="UTF-8"?>
<svg version="1.1" xmlns="http://www.w3.org/2000/svg" width="512" height="512">
<path d="M0 0 C3.48209317 0.00478262 6.96413382 -0.00782269 10.44620943 -0.01801741 C17.24734619 -0.03511307 24.04839018 -0.03606464 30.84954283 -0.03080451 C36.38484915 -0.02674369 41.92012832 -0.02822891 47.45543337 -0.03355277 C48.24679511 -0.03430119 49.03815685 -0.03504961 49.85349925 -0.03582071 C51.46177608 -0.03735238 53.07005291 -0.03889073 54.67832974 -0.04043568 C69.72213716 -0.05412771 84.76589241 -0.04874665 99.80969861 -0.03725047 C113.53012424 -0.02732494 127.25041487 -0.04025286 140.97081968 -0.06418466 C155.10563188 -0.08865088 169.24038141 -0.09816492 183.37521434 -0.09153193 C191.29210524 -0.08805592 199.2088925 -0.09016367 207.12576723 -0.10778296 C213.86618255 -0.12259964 220.60642124 -0.12301839 227.34683344 -0.10571205 C230.77628414 -0.09727601 234.20542062 -0.09486733 237.63485384 -0.1103636 C256.2259315 -0.17678101 274.3338109 0.71495553 291.83774996 7.59433305 C292.60812593 7.88912553 293.37850191 8.18391801 294.17222261 8.4876436 C325.37503496 20.86426764 350.65048267 45.68840576 364.20884371 76.31210649 C365.74160768 79.96519395 367.11248745 83.66083623 368.40024996 87.40683305 C368.63075045 88.06925004 368.86125093 88.73166704 369.09873629 89.41415727 C374.33453998 105.60034731 374.53369363 121.45944698 374.49458301 138.31908309 C374.48980039 141.80117627 374.5024057 145.28321691 374.51260042 148.76529253 C374.52969608 155.56642928 374.53064765 162.36747328 374.52538752 169.16862592 C374.5213267 174.70393225 374.52281192 180.23921141 374.52813578 185.77451646 C374.5288842 186.5658782 374.52963262 187.35723994 374.53040372 188.17258234 C374.53193539 189.78085918 374.53347374 191.38913601 374.53501869 192.99741283 C374.54871072 208.04122025 374.54332966 223.08497551 374.53183348 238.12878171 C374.52190795 251.84920733 374.53483587 265.56949796 374.55876767 279.28990278 C374.58323389 293.42471498 374.59274793 307.55946451 374.58611494 321.69429743 C374.58263893 329.61118834 374.58474668 337.52797559 374.60236597 345.44485033 C374.61718265 352.18526564 374.6176014 358.92550433 374.60029506 365.66591653 C374.59185902 369.09536723 374.58945034 372.52450372 374.60494661 375.95393693 C374.67136403 394.5450146 373.77962748 412.652894 366.90024996 430.15683305 C366.60545748 430.92720903 366.310665 431.69758501 366.00693941 432.49130571 C356.13486544 457.37987552 337.96730112 479.44357757 315.08774996 493.40683305 C314.01524996 494.09003618 312.94274996 494.7732393 311.83774996 495.47714555 C305.45004956 499.3659539 298.94823783 502.48484403 291.96274996 505.15683305 C291.27874117 505.42640825 290.59473238 505.69598344 289.88999605 505.97372758 C271.57496724 512.61625088 252.95550458 512.98750368 233.69712496 512.92441118 C230.88921006 512.92764626 228.08132106 512.93682879 225.2734189 512.94565141 C218.48616735 512.96329401 211.69909425 512.95966107 204.91183615 512.94800085 C199.38806192 512.93890996 193.86433716 512.93776673 188.34055758 512.94209611 C187.54973779 512.94270905 186.75891801 512.94332198 185.944134 512.94395348 C184.33682329 512.94523258 182.7295126 512.94652944 181.12220192 512.94784385 C166.10506253 512.95920786 151.08802133 512.94620193 136.07089806 512.92464238 C123.22881 512.90677521 110.38686666 512.9098805 97.54478121 512.92831743 C82.57569806 512.94979842 67.60670065 512.95810962 52.63760424 512.94586837 C51.03671695 512.94459438 49.43582965 512.9433369 47.83494234 512.94209611 C47.04759258 512.94147901 46.26024282 512.94086191 45.44903398 512.94022611 C39.94182532 512.93679481 34.43467175 512.94255319 28.92747164 512.95201433 C22.20178323 512.96331652 15.47628117 512.96002387 8.75061369 512.93889135 C5.32917146 512.92848977 1.90829014 512.92627884 -1.51318693 512.93748796 C-22.88729031 513.00100847 -42.22548579 511.05828192 -61.91225004 502.40683305 C-62.56644926 502.12356157 -63.22064848 501.84029008 -63.89467192 501.54843462 C-93.98974488 488.26256094 -117.69643593 462.6852702 -129.78334379 432.21054399 C-130.63388989 429.95385314 -131.44074075 427.68745259 -132.22475004 425.40683305 C-132.57050077 424.41320756 -132.57050077 424.41320756 -132.92323637 423.39950883 C-138.15904006 407.2133188 -138.35819372 391.35421913 -138.31908309 374.49458301 C-138.31430048 371.01248984 -138.32690578 367.53044919 -138.33710051 364.04837358 C-138.35419617 357.24723682 -138.35514773 350.44619283 -138.3498876 343.64504018 C-138.34582678 338.10973386 -138.347312 332.5744547 -138.35263586 327.03914964 C-138.35338428 326.2477879 -138.3541327 325.45642616 -138.35490381 324.64108376 C-138.35643548 323.03280693 -138.35797382 321.4245301 -138.35951877 319.81625327 C-138.3732108 304.77244585 -138.36782974 289.7286906 -138.35633356 274.6848844 C-138.34640804 260.96445877 -138.35933595 247.24416814 -138.38326775 233.52376333 C-138.40773398 219.38895113 -138.41724801 205.2542016 -138.41061503 191.11936867 C-138.40713902 183.20247777 -138.40924677 175.28569051 -138.42686605 167.36881578 C-138.44168273 160.62840046 -138.44210148 153.88816178 -138.42479514 147.14774957 C-138.41635911 143.71829887 -138.41395042 140.28916239 -138.4294467 136.85972917 C-138.49586411 118.26865151 -137.60412757 100.16077211 -130.72475004 82.65683305 C-130.42995756 81.88645708 -130.13516508 81.1160811 -129.8314395 80.3223604 C-117.45481545 49.11954805 -92.63067734 23.84410034 -62.0069766 10.2857393 C-58.35388915 8.75297533 -54.65824686 7.38209556 -50.91225004 6.09433305 C-49.91862455 5.74858232 -49.91862455 5.74858232 -48.90492582 5.39584672 C-32.71873579 0.16004303 -16.85963612 -0.03911062 0 0 Z " fill="#00B6FF" transform="translate(137.91225004196167,-0.40683305263519287)"/>
<path d="M0 0 C0.33 0 0.66 0 1 0 C1.09176643 33.41897614 1.16214537 66.83792067 1.20426132 100.25699504 C1.20926351 104.21185757 1.21444086 108.16671986 1.21972656 112.12158203 C1.22130043 113.30248209 1.22130043 113.30248209 1.22290608 114.50723872 C1.24026142 127.21665701 1.27177191 139.92600215 1.30861118 152.6353772 C1.3461568 165.69841256 1.36826447 178.76140989 1.37635398 191.82449698 C1.38181368 199.87040902 1.39899039 207.91611421 1.43166587 215.96196249 C1.4555201 222.1551678 1.45778581 228.34821889 1.45243073 234.54146385 C1.45352245 237.06479087 1.46136116 239.58812644 1.4768219 242.11140633 C1.58188305 260.15793653 0.48678451 277.76790114 -6.1875 294.75 C-6.48229248 295.52037598 -6.77708496 296.29075195 -7.08081055 297.08447266 C-16.95288452 321.97304247 -35.12044884 344.03674451 -58 358 C-59.0725 358.68320312 -60.145 359.36640625 -61.25 360.0703125 C-67.6377004 363.95912084 -74.13951213 367.07801098 -81.125 369.75 C-81.80900879 370.0195752 -82.49301758 370.28915039 -83.19775391 370.56689453 C-101.51278272 377.20941783 -120.13224538 377.58067063 -139.390625 377.51757812 C-142.1985399 377.5208132 -145.0064289 377.52999573 -147.81433105 377.53881836 C-154.60158261 377.55646096 -161.3886557 377.55282802 -168.17591381 377.5411678 C-173.69968804 377.53207691 -179.22341279 377.53093368 -184.74719238 377.53526306 C-185.53801216 377.53587599 -186.32883194 377.53648893 -187.14361596 377.53712043 C-188.75092667 377.53839953 -190.35823736 377.53969639 -191.96554804 377.5410108 C-206.98268743 377.55237481 -221.99972862 377.53936888 -237.0168519 377.51780933 C-249.85893996 377.49994216 -262.7008833 377.50304745 -275.54296875 377.52148438 C-290.51205189 377.54296537 -305.48104931 377.55127657 -320.45014572 377.53903532 C-322.05103301 377.53776133 -323.65192031 377.53650384 -325.25280762 377.53526306 C-326.04015738 377.53464596 -326.82750714 377.53402886 -327.63871598 377.53339306 C-333.14592464 377.52996175 -338.6530782 377.53572014 -344.16027832 377.54518127 C-350.88596672 377.55648346 -357.61146879 377.55319082 -364.33713627 377.5320583 C-367.7585785 377.52165672 -371.17945982 377.51944578 -374.60093689 377.53065491 C-395.97504027 377.59417542 -415.31323575 375.65144887 -435 367 C-435.65419922 366.71672852 -436.30839844 366.43345703 -436.98242188 366.14160156 C-467.07749484 352.85572789 -490.78418589 327.27843714 -502.87109375 296.80371094 C-520.2980481 250.56606592 -510.02819116 196.28957824 -491 152 C-490.55019775 150.9478833 -490.55019775 150.9478833 -490.09130859 149.87451172 C-480.50319334 127.77266381 -466.85842177 108.03576587 -451 90 C-450.21496094 89.1028125 -449.42992187 88.205625 -448.62109375 87.28125 C-435.54916311 72.54975252 -420.09124781 58.03544676 -403 48 C-401.515 48.495 -401.515 48.495 -400 49 C-399.04296875 51.5546875 -399.04296875 51.5546875 -398.1875 54.875 C-394.2619322 68.37836294 -386.8307723 77.2359524 -377 87 C-377.33 87.99 -377.66 88.98 -378 90 C-385.625 89.125 -385.625 89.125 -389 88 C-392.76742282 87.65750702 -395.15266987 87.53396843 -398.5 89.375 C-401.0193651 93.78388893 -400.28469296 97.19108176 -399 102 C-393.48114578 117.55147332 -385.32311923 131.61901641 -370.375 139.75 C-363.8975865 142.77347624 -356.92623637 144.34693825 -350 146 C-350 146.99 -350 147.98 -350 149 C-353.74413244 150.87206622 -358.5434222 150.33197636 -362.703125 150.4296875 C-366.10108091 150.5707791 -368.4520486 150.70839007 -371.48828125 152.32421875 C-373.30780436 154.07106199 -373.30780436 154.07106199 -373.8125 157.4375 C-373.38650298 165.16224602 -366.67856984 171.31721858 -361.515625 176.48828125 C-350.0304557 186.56390704 -336.99605332 191.93157885 -322 194 C-322 195.32 -322 196.64 -322 198 C-324.0076576 199.67356358 -325.84495331 200.97259175 -328.0625 202.3125 C-328.68938721 202.70203857 -329.31627441 203.09157715 -329.9621582 203.49291992 C-345.19802222 212.74333345 -361.59326713 218.82244062 -379.23046875 221.48828125 C-380.20628906 221.63652344 -381.18210937 221.78476562 -382.1875 221.9375 C-383.47720703 222.10572266 -383.47720703 222.10572266 -384.79296875 222.27734375 C-387.6720848 223.22006316 -388.52160574 224.39385627 -390 227 C-390.56866489 230.52785634 -390.56866489 230.52785634 -389 234 C-382.73196625 238.27532003 -375.1475414 240.49273782 -367.9375 242.625 C-366.93887939 242.92422363 -365.94025879 243.22344727 -364.91137695 243.53173828 C-356.35400169 246.02755383 -347.84117105 247.84487212 -339 249 C-337.92745972 249.1403064 -337.92745972 249.1403064 -336.83325195 249.28344727 C-329.83771272 250.09748678 -322.86274052 250.18615798 -315.82495117 250.18530273 C-313.83312867 250.18747748 -311.84134574 250.20595832 -309.84960938 250.22460938 C-264.26096016 250.29214811 -219.93682812 232.24520855 -187 201 C-186.50532227 200.53787109 -186.01064453 200.07574219 -185.50097656 199.59960938 C-164.70989007 180.07517984 -150.04887676 155.42335549 -140.25732422 128.76245117 C-138.19504715 123.19504715 -138.19504715 123.19504715 -136 121 C-133.8996582 120.72875977 -133.8996582 120.72875977 -131.30078125 120.69140625 C-130.3463916 120.66852539 -129.39200195 120.64564453 -128.40869141 120.62207031 C-126.87607666 120.59258301 -126.87607666 120.59258301 -125.3125 120.5625 C-115.85358617 120.25619747 -107.1884765 119.38219761 -98 117 C-97.3493457 116.84047852 -96.69869141 116.68095703 -96.02832031 116.51660156 C-63.1983389 108.37551621 -35.31018836 88.01855988 -17.81005859 59.02880859 C-7.17962938 40.95233898 -1.11368341 20.96797048 0 0 Z " fill="#0F9DFF" transform="translate(511,135)"/>
<path d="M0 0 C0.33 0 0.66 0 1 0 C1.09176643 33.41897614 1.16214537 66.83792067 1.20426132 100.25699504 C1.20926351 104.21185757 1.21444086 108.16671986 1.21972656 112.12158203 C1.2207758 112.90884874 1.22182505 113.69611544 1.22290608 114.50723872 C1.24026142 127.21665701 1.27177191 139.92600215 1.30861118 152.6353772 C1.3461568 165.69841256 1.36826447 178.76140989 1.37635398 191.82449698 C1.38181368 199.87040902 1.39899039 207.91611421 1.43166587 215.96196249 C1.4555201 222.1551678 1.45778581 228.34821889 1.45243073 234.54146385 C1.45352245 237.06479087 1.46136116 239.58812644 1.4768219 242.11140633 C1.58188305 260.15793653 0.48678451 277.76790114 -6.1875 294.75 C-6.48229248 295.52037598 -6.77708496 296.29075195 -7.08081055 297.08447266 C-16.95288452 321.97304247 -35.12044884 344.03674451 -58 358 C-59.0725 358.68320312 -60.145 359.36640625 -61.25 360.0703125 C-87.94905207 376.32459651 -121.43794937 381.74005551 -152 375 C-153.02504639 374.78996338 -153.02504639 374.78996338 -154.07080078 374.57568359 C-178.0864513 369.54696617 -198.37255879 357.88166485 -216 341 C-216.845625 340.195625 -217.69125 339.39125 -218.5625 338.5625 C-219.366875 337.716875 -220.17125 336.87125 -221 336 C-221.65355469 335.3296875 -222.30710937 334.659375 -222.98046875 333.96875 C-246.71038583 308.80931985 -255.6069022 275.81793901 -255 242 C-254.01386719 241.5978125 -254.01386719 241.5978125 -253.0078125 241.1875 C-250.31647311 240.07887239 -247.63216745 238.95468349 -244.95117188 237.82128906 C-243.62104276 237.26140989 -242.28891486 236.70626139 -240.95507812 236.15527344 C-197.36632711 218.08335325 -164.06342147 184.00870289 -145 141 C-143.3407238 136.95042072 -141.76603488 132.87044022 -140.25732422 128.76245117 C-138.19504715 123.19504715 -138.19504715 123.19504715 -136 121 C-133.8996582 120.72875977 -133.8996582 120.72875977 -131.30078125 120.69140625 C-130.3463916 120.66852539 -129.39200195 120.64564453 -128.40869141 120.62207031 C-127.38694824 120.60241211 -126.36520508 120.58275391 -125.3125 120.5625 C-115.85358617 120.25619747 -107.1884765 119.38219761 -98 117 C-97.3493457 116.84047852 -96.69869141 116.68095703 -96.02832031 116.51660156 C-63.1983389 108.37551621 -35.31018836 88.01855988 -17.81005859 59.02880859 C-7.17962938 40.95233898 -1.11368341 20.96797048 0 0 Z " fill="#1D83FF" transform="translate(511,135)"/>
<path d="M0 0 C1.71134152 1.70633759 3.38303547 3.45397564 5 5.25 C7.22223992 7.61105003 7.22223992 7.61105003 10 9 C15.73678137 8.82130327 20.69216807 7.07939505 26 5 C26.69480469 4.73010254 27.38960938 4.46020508 28.10546875 4.18212891 C31.36372034 2.9006824 34.58467128 1.57615688 37.79296875 0.171875 C40.84589305 -0.94368808 42.79835415 -1.43219376 46 -1 C46.66 -0.34 47.32 0.32 48 1 C47.23847609 9.50368368 39.77510027 17.16896655 34 23 C33.01 23.66 32.02 24.32 31 25 C30.27617533 27.05925139 30.27617533 27.05925139 30 29 C31.50240234 28.566875 31.50240234 28.566875 33.03515625 28.125 C34.37747197 27.74952707 35.71992749 27.37455369 37.0625 27 C37.71927734 26.80921875 38.37605469 26.6184375 39.05273438 26.421875 C43.45826775 25.20655545 47.38706747 24.71793534 52 25 C53 26 53 26 53.35546875 28.2109375 C52.85028856 32.17465898 51.03790827 33.7401884 48.3125 36.625 C47.82861816 37.15657715 47.34473633 37.6881543 46.84619141 38.23583984 C44.22799156 41.0269789 41.6804913 43.31410903 38.41015625 45.3125 C33.65648186 48.32751684 29.6982836 50.94777146 28.3828125 56.69775391 C27.68656566 63.37471863 27.88429818 70.05492645 28.00878906 76.75732422 C27.89504448 118.72275617 4.29095496 163.21773889 -24 193 C-24.4945166 193.52706543 -24.9890332 194.05413086 -25.49853516 194.59716797 C-56.14431717 227.07780478 -100.54004221 247.42853386 -145.33007812 249.1262207 C-173.66042039 249.72822137 -206.85722832 249.00990324 -232 234 C-233.80078125 232.078125 -233.80078125 232.078125 -235 230 C-234.79127899 224.05145114 -234.79127899 224.05145114 -232.76147461 221.35424805 C-230.49810913 219.61413879 -228.7561356 219.33912057 -225.94140625 218.89453125 C-224.92554443 218.72018555 -223.90968262 218.54583984 -222.86303711 218.36621094 C-221.77385986 218.18348633 -220.68468262 218.00076172 -219.5625 217.8125 C-201.23767255 214.42442896 -180.36456462 207.53308263 -166 195 C-166 194.34 -166 193.68 -166 193 C-167.34578125 192.814375 -167.34578125 192.814375 -168.71875 192.625 C-188.52408788 189.35139043 -204.20578386 179.37592918 -216 163 C-218.1272776 159.8090836 -218.33381412 157.79840226 -218.55859375 154.03515625 C-217.64110223 150.69240743 -215.93772949 149.73904453 -213 148 C-210.10306406 147.44815145 -207.25603906 147.39497312 -204.3125 147.375 C-198.64751667 147.64054661 -198.64751667 147.64054661 -194 145 C-194.96679688 144.76925781 -195.93359375 144.53851563 -196.9296875 144.30078125 C-213.39320083 140.24055871 -226.86207485 132.98290429 -236 118 C-246.53502612 98.13728901 -246.53502612 98.13728901 -245 90 C-243 86.875 -243 86.875 -240 85 C-234.90324761 84.33930988 -230.86095656 85.53254142 -226 87 C-224.68 87 -223.36 87 -222 87 C-223.46091441 83.53993956 -225.34448412 81.61486962 -228.125 79.125 C-237.22185046 70.18928538 -241.91958882 59.21722399 -245 47 C-245.19078125 46.36964844 -245.3815625 45.73929688 -245.578125 45.08984375 C-247.76078456 34.27759502 -246.1293438 22.14493105 -242 12 C-239.47304468 8.87455526 -238.6512751 8.10854585 -234.625 7.4375 C-230.2188212 8.1212174 -228.02193465 9.92727653 -225 13 C-224.195625 13.78375 -223.39125 14.5675 -222.5625 15.375 C-221.22573242 16.74437167 -219.89158646 18.11682235 -218.58984375 19.51953125 C-204.67349887 34.119726 -186.22357961 44.72219868 -168 53 C-166.8874585 53.50660156 -166.8874585 53.50660156 -165.75244141 54.0234375 C-145.36875914 63.12658039 -124.22621935 67.64445771 -102 69 C-102.15855469 68.195625 -102.31710938 67.39125 -102.48046875 66.5625 C-105.08007993 48.73659478 -102.06624074 32.14605054 -92 17 C-83.35437313 5.60554275 -72.40367963 -2.92314 -59 -8 C-58.17371094 -8.3196875 -57.34742188 -8.639375 -56.49609375 -8.96875 C-38.05643099 -15.04961589 -15.87198054 -10.72023714 0 0 Z " fill="#FEFEFF" transform="translate(355,137)"/>
<path d="M0 0 C31.2209506 -0.77896583 60.87884843 14.53939904 83.04492188 35.59350586 C105.68938954 57.70907105 120.69890375 88.40515743 121.30078125 120.34765625 C121.44984271 158.06020503 110.56206255 190.74400839 84 218 C83.24589844 218.83917969 82.49179687 219.67835938 81.71484375 220.54296875 C59.56626873 244.43911573 25.94803354 255.30769704 -5.75 256.625 C-9.49965565 256.76284689 -13.24948386 256.88808504 -17 257 C-16.74605469 256.01902344 -16.49210937 255.03804687 -16.23046875 254.02734375 C-10.58857237 232.73786752 -10.58857237 232.73786752 -9.2109375 210.890625 C-9.83346541 192.29260357 -9.83346541 192.29260357 -4.9140625 186.765625 C-1.80314413 183.94386121 1.60357483 181.59866292 5.11767578 179.30859375 C7.96032513 177.33238097 10.10851402 175.06374777 12.4375 172.5 C13.13746094 171.7471875 13.83742188 170.994375 14.55859375 170.21875 C16.26335219 167.59462319 16.30812226 166.07041132 16 163 C10.41591241 162.62772749 5.89266002 163.71171915 0.55078125 165.34375 C-2 166 -2 166 -6 166 C-5.92154035 163.33237187 -5.59058661 161.56381781 -3.62109375 159.68359375 C-2.75677734 159.00490234 -2.75677734 159.00490234 -1.875 158.3125 C2.07447704 155.18379905 4.64143258 151.53785113 7.421875 147.3671875 C7.94265625 146.58601562 8.4634375 145.80484375 9 145 C9.43699219 144.2884375 9.87398438 143.576875 10.32421875 142.84375 C12.61266254 140.32592839 14.85277653 139.70383435 18.0625 138.625 C28.85003297 134.6783416 36.82287094 129.03467036 45 121 C45.55429687 120.45859375 46.10859375 119.9171875 46.6796875 119.359375 C58.65013496 106.54776096 64.8182828 88.56193886 64.45581055 71.1953125 C63.47551972 50.74038764 55.84053353 32.80203837 41.02734375 18.578125 C28.71881606 8.096024 15.53228364 3.73368192 0 1 C0 0.67 0 0.34 0 0 Z " fill="#0F9DFF" transform="translate(391,0)"/>
<path d="M0 0 C-1.61514752 3.35842506 -3.53485363 6.10547919 -5.8125 9.0625 C-15.0519491 21.66631372 -18.54148884 34.69368099 -18.1875 50.1875 C-18.17396484 51.33025391 -18.16042969 52.47300781 -18.14648438 53.65039062 C-18.1115423 56.43410963 -18.06249011 59.21678664 -18 62 C-27.290024 62.34590515 -35.87972705 61.42039113 -44.94384766 59.43994141 C-46.9286561 59.01526499 -48.9233395 58.63757611 -50.91796875 58.26171875 C-76.51388612 53.19091838 -100.38964503 40.72677688 -121 25 C-121.95261719 24.28585938 -122.90523437 23.57171875 -123.88671875 22.8359375 C-124.58410156 22.23007813 -125.28148437 21.62421875 -126 21 C-126 20.34 -126 19.68 -126 19 C-110.50191425 12.67312943 -95.1469788 7.96344885 -78.75268555 4.578125 C-76.29003538 4.06091386 -73.84633533 3.49215507 -71.3984375 2.91015625 C-66.48395694 1.8210427 -61.57519408 1.28795475 -56.5625 0.875 C-55.53713135 0.79008301 -54.5117627 0.70516602 -53.45532227 0.61767578 C-35.68687053 -0.64451539 -17.80042166 -0.1633412 0 0 Z " fill="#109DFF" transform="translate(271,144)"/>
<path d="M0 0 C3.3 0 6.6 0 10 0 C6.71299843 1.64350079 4.52069985 2.41321669 1 3 C0.67 2.01 0.34 1.02 0 0 Z " fill="#25A6FF" transform="translate(364,144)"/>
</svg>
